<svg xmlns="http://www.w3.org/2000/svg" xmlns:xlink="http://www.w3.org/1999/xlink" width="500" zoomAndPan="magnify" viewBox="0 0 375 374.999991" height="500" preserveAspectRatio="xMidYMid meet" version="1.2"><defs><clipPath id="90afc8835c"><path d="M 0.0117188 142.691406 L 80.214844 142.691406 L 80.214844 209.15625 L 0.0117188 209.15625 Z M 0.0117188 142.691406 "/></clipPath><clipPath id="7abf71f7f7"><path d="M 50.882812 142.691406 L 80.214844 150.964844 L 80.214844 173.832031 L 54.71875 185.765625 L 5.890625 170.683594 L 5.890625 183.335938 L 54.464844 200.082031 L 80.214844 188.382812 L 80.214844 197.070312 L 53.695312 209.15625 L 0.0117188 189.34375 L 0.0117188 165.953125 L 50.882812 142.691406 "/></clipPath><linearGradient x1="-0.575225" gradientTransform="matrix(0,-39.274466,39.274466,0,40.113201,186.565386)" y1="0" x2="1.117117" gradientUnits="userSpaceOnUse" y2="0" id="df01abacf9"><stop style="stop-color:#007ab9;stop-opacity:1;" offset="0"/><stop style="stop-color:#007ab9;stop-opacity:1;" offset="0.25"/><stop style="stop-color:#007ab9;stop-opacity:1;" offset="0.3125"/><stop style="stop-color:#007ab9;stop-opacity:1;" offset="0.34375"/><stop style="stop-color:#007ab8;stop-opacity:1;" offset="0.359375"/><stop style="stop-color:#0079b8;stop-opacity:1;" offset="0.367187"/><stop style="stop-color:#0079b7;stop-opacity:1;" offset="0.375"/><stop style="stop-color:#0078b7;stop-opacity:1;" offset="0.382812"/><stop style="stop-color:#0078b6;stop-opacity:1;" offset="0.390625"/><stop style="stop-color:#0078b6;stop-opacity:1;" offset="0.394531"/><stop style="stop-color:#0077b5;stop-opacity:1;" offset="0.398438"/><stop style="stop-color:#0077b5;stop-opacity:1;" offset="0.40625"/><stop style="stop-color:#0077b5;stop-opacity:1;" offset="0.421875"/><stop style="stop-color:#0076b4;stop-opacity:1;" offset="0.429688"/><stop style="stop-color:#0076b3;stop-opacity:1;" offset="0.433594"/><stop style="stop-color:#0075b2;stop-opacity:1;" offset="0.4375"/><stop style="stop-color:#0075b2;stop-opacity:1;" offset="0.445312"/><stop style="stop-color:#0075b1;stop-opacity:1;" offset="0.453125"/><stop style="stop-color:#0074b0;stop-opacity:1;" offset="0.46875"/><stop style="stop-color:#0074b0;stop-opacity:1;" offset="0.476562"/><stop style="stop-color:#0073af;stop-opacity:1;" offset="0.480469"/><stop style="stop-color:#0073af;stop-opacity:1;" offset="0.484375"/><stop style="stop-color:#0072af;stop-opacity:1;" offset="0.492187"/><stop style="stop-color:#0072ae;stop-opacity:1;" offset="0.5"/><stop style="stop-color:#0071ad;stop-opacity:1;" offset="0.515625"/><stop style="stop-color:#0071ad;stop-opacity:1;" offset="0.523437"/><stop style="stop-color:#0070ac;stop-opacity:1;" offset="0.53125"/><stop style="stop-color:#0070ac;stop-opacity:1;" offset="0.546875"/><stop style="stop-color:#006fab;stop-opacity:1;" offset="0.554687"/><stop style="stop-color:#006faa;stop-opacity:1;" offset="0.5625"/><stop style="stop-color:#006eaa;stop-opacity:1;" offset="0.566406"/><stop style="stop-color:#006ea9;stop-opacity:1;" offset="0.570312"/><stop style="stop-color:#006ea9;stop-opacity:1;" offset="0.578125"/><stop style="stop-color:#006ea9;stop-opacity:1;" offset="0.585938"/><stop style="stop-color:#006da8;stop-opacity:1;" offset="0.59375"/><stop style="stop-color:#006da8;stop-opacity:1;" offset="0.601562"/><stop style="stop-color:#006da7;stop-opacity:1;" offset="0.609375"/><stop style="stop-color:#006ca6;stop-opacity:1;" offset="0.617188"/><stop style="stop-color:#006ca5;stop-opacity:1;" offset="0.625"/><stop style="stop-color:#006ca5;stop-opacity:1;" offset="0.632812"/><stop style="stop-color:#006ba4;stop-opacity:1;" offset="0.640625"/><stop style="stop-color:#006ba4;stop-opacity:1;" offset="0.648438"/><stop style="stop-color:#006ba3;stop-opacity:1;" offset="0.65625"/><stop style="stop-color:#006aa3;stop-opacity:1;" offset="0.664062"/><stop style="stop-color:#006aa2;stop-opacity:1;" offset="0.671875"/><stop style="stop-color:#0069a1;stop-opacity:1;" offset="0.6875"/><stop style="stop-color:#0069a1;stop-opacity:1;" offset="0.691406"/><stop style="stop-color:#0068a1;stop-opacity:1;" offset="0.695312"/><stop style="stop-color:#0068a0;stop-opacity:1;" offset="0.703125"/><stop style="stop-color:#0068a0;stop-opacity:1;" offset="0.710938"/><stop style="stop-color:#0067a0;stop-opacity:1;" offset="0.71875"/><stop style="stop-color:#00679f;stop-opacity:1;" offset="0.726562"/><stop style="stop-color:#00679e;stop-opacity:1;" offset="0.730469"/><stop style="stop-color:#00669e;stop-opacity:1;" offset="0.734375"/><stop style="stop-color:#00669e;stop-opacity:1;" offset="0.742188"/><stop style="stop-color:#00659d;stop-opacity:1;" offset="0.75"/><stop style="stop-color:#00659d;stop-opacity:1;" offset="0.757813"/><stop style="stop-color:#00659c;stop-opacity:1;" offset="0.765625"/><stop style="stop-color:#00649c;stop-opacity:1;" offset="0.769531"/><stop style="stop-color:#00649b;stop-opacity:1;" offset="0.773438"/><stop style="stop-color:#00649b;stop-opacity:1;" offset="0.78125"/><stop style="stop-color:#00639b;stop-opacity:1;" offset="0.796875"/><stop style="stop-color:#00639a;stop-opacity:1;" offset="0.804688"/><stop style="stop-color:#006299;stop-opacity:1;" offset="0.8125"/><stop style="stop-color:#006298;stop-opacity:1;" offset="0.820313"/><stop style="stop-color:#006197;stop-opacity:1;" offset="0.828125"/><stop style="stop-color:#006196;stop-opacity:1;" offset="0.84375"/><stop style="stop-color:#006096;stop-opacity:1;" offset="0.851563"/><stop style="stop-color:#006095;stop-opacity:1;" offset="0.855469"/><stop style="stop-color:#006095;stop-opacity:1;" offset="0.859375"/><stop style="stop-color:#005f95;stop-opacity:1;" offset="0.867188"/><stop style="stop-color:#005f94;stop-opacity:1;" offset="0.875"/><stop style="stop-color:#005f93;stop-opacity:1;" offset="0.890625"/><stop style="stop-color:#005e93;stop-opacity:1;" offset="0.898437"/><stop style="stop-color:#005e92;stop-opacity:1;" offset="0.90625"/><stop style="stop-color:#005d92;stop-opacity:1;" offset="0.921875"/><stop style="stop-color:#005d91;stop-opacity:1;" offset="0.9375"/><stop style="stop-color:#005c90;stop-opacity:1;" offset="1"/></linearGradient><clipPath id="902880a9ab"><path d="M 2.789062 117.320312 L 84.191406 117.320312 L 84.191406 222.910156 L 2.789062 222.910156 Z M 2.789062 117.320312 "/></clipPath><clipPath id="4b9bdefbbd"><path d="M 28.910156 157.246094 L 60.410156 157.246094 L 60.410156 187.246094 L 28.910156 187.246094 Z M 28.910156 157.246094 "/></clipPath></defs><g id="9cc1d48659"><g style="fill:#ffffff;fill-opacity:1;"><g transform="translate(91.449807, 216.928674)"><path style="stroke:none" d="M 35.15625 0 L 35.0625 -18.578125 L 26.046875 -3.453125 L 21.640625 -3.453125 L 12.671875 -18.078125 L 12.671875 0 L 3.5 0 L 3.5 -35.0625 L 11.671875 -35.0625 L 23.984375 -14.828125 L 36 -35.0625 L 44.171875 -35.0625 L 44.265625 0 Z M 35.15625 0 "/></g></g><g style="fill:#ffffff;fill-opacity:1;"><g transform="translate(143.085531, 216.928674)"><path style="stroke:none" d="M 19.6875 0.703125 C 14.476562 0.703125 10.425781 -0.710938 7.53125 -3.546875 C 4.644531 -6.390625 3.203125 -10.414062 3.203125 -15.625 L 3.203125 -35.0625 L 13.125 -35.0625 L 13.125 -15.921875 C 13.125 -10.316406 15.34375 -7.515625 19.78125 -7.515625 C 24.1875 -7.515625 26.390625 -10.316406 26.390625 -15.921875 L 26.390625 -35.0625 L 36.15625 -35.0625 L 36.15625 -15.625 C 36.15625 -10.414062 34.710938 -6.390625 31.828125 -3.546875 C 28.941406 -0.710938 24.894531 0.703125 19.6875 0.703125 Z M 19.6875 0.703125 "/></g></g><g style="fill:#ffffff;fill-opacity:1;"><g transform="translate(186.307361, 216.928674)"><path style="stroke:none" d="M 26.984375 -6.8125 L 12.171875 -6.8125 L 9.421875 0 L -0.703125 0 L 14.765625 -35.0625 L 24.53125 -35.0625 L 40.0625 0 L 29.75 0 Z M 24.09375 -14.125 L 19.578125 -25.34375 L 15.078125 -14.125 Z M 24.09375 -14.125 "/></g></g><g style="fill:#ffffff;fill-opacity:1;"><g transform="translate(229.529191, 216.928674)"><path style="stroke:none" d="M 3.5 -35.0625 L 13.421875 -35.0625 L 13.421875 -7.859375 L 30.140625 -7.859375 L 30.140625 0 L 3.5 0 Z M 3.5 -35.0625 "/></g></g><g style="fill:#ffffff;fill-opacity:1;"><g transform="translate(263.936452, 216.928674)"><path style="stroke:none" d="M 3.5 -35.0625 L 13.421875 -35.0625 L 13.421875 0 L 3.5 0 Z M 3.5 -35.0625 "/></g></g><g style="fill:#ffffff;fill-opacity:1;"><g transform="translate(284.771291, 216.928674)"><path style="stroke:none" d="M 35.15625 0 L 35.0625 -18.578125 L 26.046875 -3.453125 L 21.640625 -3.453125 L 12.671875 -18.078125 L 12.671875 0 L 3.5 0 L 3.5 -35.0625 L 11.671875 -35.0625 L 23.984375 -14.828125 L 36 -35.0625 L 44.171875 -35.0625 L 44.265625 0 Z M 35.15625 0 "/></g></g><g style="fill:#ffffff;fill-opacity:1;"><g transform="translate(336.407016, 216.928674)"><path style="stroke:none" d="M 19.6875 0.703125 C 14.476562 0.703125 10.425781 -0.710938 7.53125 -3.546875 C 4.644531 -6.390625 3.203125 -10.414062 3.203125 -15.625 L 3.203125 -35.0625 L 13.125 -35.0625 L 13.125 -15.921875 C 13.125 -10.316406 15.34375 -7.515625 19.78125 -7.515625 C 24.1875 -7.515625 26.390625 -10.316406 26.390625 -15.921875 L 26.390625 -35.0625 L 36.15625 -35.0625 L 36.15625 -15.625 C 36.15625 -10.414062 34.710938 -6.390625 31.828125 -3.546875 C 28.941406 -0.710938 24.894531 0.703125 19.6875 0.703125 Z M 19.6875 0.703125 "/></g></g><g style="fill:#000000;fill-opacity:1;"><g transform="translate(94.361745, 252.331676)"><path style="stroke:none" d="M 10.375 -6.40625 C 11.0625 -6.175781 11.601562 -5.800781 12 -5.28125 C 12.394531 -4.757812 12.59375 -4.113281 12.59375 -3.34375 C 12.59375 -2.269531 12.179688 -1.441406 11.359375 -0.859375 C 10.546875 -0.285156 9.351562 0 7.78125 0 L 1.65625 0 L 1.65625 -12.3125 L 7.421875 -12.3125 C 8.878906 -12.3125 10 -12.023438 10.78125 -11.453125 C 11.570312 -10.890625 11.96875 -10.109375 11.96875 -9.109375 C 11.96875 -8.503906 11.828125 -7.96875 11.546875 -7.5 C 11.265625 -7.03125 10.875 -6.664062 10.375 -6.40625 Z M 3.9375 -10.515625 L 3.9375 -7.125 L 7.171875 -7.125 C 7.972656 -7.125 8.585938 -7.265625 9.015625 -7.546875 C 9.441406 -7.835938 9.65625 -8.257812 9.65625 -8.8125 C 9.65625 -9.375 9.441406 -9.796875 9.015625 -10.078125 C 8.585938 -10.367188 7.972656 -10.515625 7.171875 -10.515625 Z M 7.640625 -1.796875 C 9.410156 -1.796875 10.296875 -2.390625 10.296875 -3.578125 C 10.296875 -4.753906 9.410156 -5.34375 7.640625 -5.34375 L 3.9375 -5.34375 L 3.9375 -1.796875 Z M 7.640625 -1.796875 "/></g></g><g style="fill:#000000;fill-opacity:1;"><g transform="translate(112.360994, 252.331676)"><path style="stroke:none" d="M 10.890625 -1.921875 L 10.890625 0 L 1.65625 0 L 1.65625 -12.3125 L 10.640625 -12.3125 L 10.640625 -10.390625 L 3.9375 -10.390625 L 3.9375 -7.203125 L 9.890625 -7.203125 L 9.890625 -5.3125 L 3.9375 -5.3125 L 3.9375 -1.921875 Z M 10.890625 -1.921875 "/></g></g><g style="fill:#000000;fill-opacity:1;"><g transform="translate(128.759261, 252.331676)"><path style="stroke:none" d="M 6.96875 -4.34375 L 6.96875 0 L 4.6875 0 L 4.6875 -4.3125 L -0.15625 -12.3125 L 2.28125 -12.3125 L 5.890625 -6.3125 L 9.53125 -12.3125 L 11.78125 -12.3125 Z M 6.96875 -4.34375 "/></g></g><g style="fill:#000000;fill-opacity:1;"><g transform="translate(144.999196, 252.331676)"><path style="stroke:none" d="M 7.40625 0.171875 C 6.15625 0.171875 5.023438 -0.0976562 4.015625 -0.640625 C 3.003906 -1.179688 2.210938 -1.9375 1.640625 -2.90625 C 1.066406 -3.875 0.78125 -4.957031 0.78125 -6.15625 C 0.78125 -7.351562 1.066406 -8.4375 1.640625 -9.40625 C 2.210938 -10.375 3.003906 -11.128906 4.015625 -11.671875 C 5.023438 -12.210938 6.15625 -12.484375 7.40625 -12.484375 C 8.664062 -12.484375 9.796875 -12.210938 10.796875 -11.671875 C 11.804688 -11.128906 12.597656 -10.375 13.171875 -9.40625 C 13.753906 -8.445312 14.046875 -7.363281 14.046875 -6.15625 C 14.046875 -4.945312 13.753906 -3.859375 13.171875 -2.890625 C 12.597656 -1.929688 11.804688 -1.179688 10.796875 -0.640625 C 9.796875 -0.0976562 8.664062 0.171875 7.40625 0.171875 Z M 7.40625 -1.828125 C 8.226562 -1.828125 8.96875 -2.007812 9.625 -2.375 C 10.28125 -2.75 10.796875 -3.265625 11.171875 -3.921875 C 11.546875 -4.585938 11.734375 -5.332031 11.734375 -6.15625 C 11.734375 -6.976562 11.546875 -7.71875 11.171875 -8.375 C 10.796875 -9.039062 10.28125 -9.554688 9.625 -9.921875 C 8.96875 -10.296875 8.226562 -10.484375 7.40625 -10.484375 C 6.582031 -10.484375 5.84375 -10.296875 5.1875 -9.921875 C 4.53125 -9.554688 4.015625 -9.039062 3.640625 -8.375 C 3.265625 -7.71875 3.078125 -6.976562 3.078125 -6.15625 C 3.078125 -5.332031 3.265625 -4.585938 3.640625 -3.921875 C 4.015625 -3.265625 4.53125 -2.75 5.1875 -2.375 C 5.84375 -2.007812 6.582031 -1.828125 7.40625 -1.828125 Z M 7.40625 -1.828125 "/></g></g><g style="fill:#000000;fill-opacity:1;"><g transform="translate(164.423484, 252.331676)"><path style="stroke:none" d="M 12.59375 -12.3125 L 12.59375 0 L 10.71875 0 L 3.921875 -8.34375 L 3.921875 0 L 1.65625 0 L 1.65625 -12.3125 L 3.53125 -12.3125 L 10.328125 -3.96875 L 10.328125 -12.3125 Z M 12.59375 -12.3125 "/></g></g><g style="fill:#000000;fill-opacity:1;"><g transform="translate(183.284799, 252.331676)"><path style="stroke:none" d="M 1.65625 -12.3125 L 7.03125 -12.3125 C 8.351562 -12.3125 9.519531 -12.054688 10.53125 -11.546875 C 11.550781 -11.035156 12.34375 -10.3125 12.90625 -9.375 C 13.476562 -8.445312 13.765625 -7.375 13.765625 -6.15625 C 13.765625 -4.9375 13.476562 -3.859375 12.90625 -2.921875 C 12.34375 -1.992188 11.550781 -1.273438 10.53125 -0.765625 C 9.519531 -0.253906 8.351562 0 7.03125 0 L 1.65625 0 Z M 6.9375 -1.9375 C 7.832031 -1.9375 8.625 -2.109375 9.3125 -2.453125 C 10 -2.796875 10.523438 -3.285156 10.890625 -3.921875 C 11.265625 -4.566406 11.453125 -5.3125 11.453125 -6.15625 C 11.453125 -7 11.265625 -7.738281 10.890625 -8.375 C 10.523438 -9.019531 10 -9.515625 9.3125 -9.859375 C 8.625 -10.203125 7.832031 -10.375 6.9375 -10.375 L 3.9375 -10.375 L 3.9375 -1.9375 Z M 6.9375 -1.9375 "/></g></g><g style="fill:#000000;fill-opacity:1;"><g transform="translate(202.427592, 252.331676)"><path style="stroke:none" d=""/></g></g><g style="fill:#000000;fill-opacity:1;"><g transform="translate(211.894168, 252.331676)"><path style="stroke:none" d="M 5.46875 0.171875 C 4.519531 0.171875 3.601562 0.0351562 2.71875 -0.234375 C 1.832031 -0.503906 1.128906 -0.859375 0.609375 -1.296875 L 1.40625 -3.078125 C 1.90625 -2.679688 2.519531 -2.351562 3.25 -2.09375 C 3.988281 -1.84375 4.726562 -1.71875 5.46875 -1.71875 C 6.382812 -1.71875 7.066406 -1.863281 7.515625 -2.15625 C 7.972656 -2.457031 8.203125 -2.847656 8.203125 -3.328125 C 8.203125 -3.679688 8.070312 -3.972656 7.8125 -4.203125 C 7.5625 -4.429688 7.242188 -4.609375 6.859375 -4.734375 C 6.472656 -4.859375 5.945312 -5.003906 5.28125 -5.171875 C 4.34375 -5.390625 3.582031 -5.609375 3 -5.828125 C 2.414062 -6.054688 1.914062 -6.40625 1.5 -6.875 C 1.082031 -7.351562 0.875 -8 0.875 -8.8125 C 0.875 -9.488281 1.054688 -10.101562 1.421875 -10.65625 C 1.796875 -11.21875 2.351562 -11.660156 3.09375 -11.984375 C 3.84375 -12.316406 4.757812 -12.484375 5.84375 -12.484375 C 6.59375 -12.484375 7.332031 -12.390625 8.0625 -12.203125 C 8.789062 -12.015625 9.414062 -11.75 9.9375 -11.40625 L 9.21875 -9.625 C 8.675781 -9.9375 8.113281 -10.175781 7.53125 -10.34375 C 6.945312 -10.507812 6.378906 -10.59375 5.828125 -10.59375 C 4.921875 -10.59375 4.25 -10.4375 3.8125 -10.125 C 3.375 -9.820312 3.15625 -9.421875 3.15625 -8.921875 C 3.15625 -8.566406 3.28125 -8.273438 3.53125 -8.046875 C 3.78125 -7.828125 4.097656 -7.65625 4.484375 -7.53125 C 4.867188 -7.40625 5.394531 -7.257812 6.0625 -7.09375 C 6.976562 -6.882812 7.726562 -6.664062 8.3125 -6.4375 C 8.90625 -6.207031 9.410156 -5.859375 9.828125 -5.390625 C 10.242188 -4.921875 10.453125 -4.285156 10.453125 -3.484375 C 10.453125 -2.804688 10.265625 -2.191406 9.890625 -1.640625 C 9.523438 -1.085938 8.96875 -0.644531 8.21875 -0.3125 C 7.46875 0.0078125 6.550781 0.171875 5.46875 0.171875 Z M 5.46875 0.171875 "/></g></g><g style="fill:#000000;fill-opacity:1;"><g transform="translate(227.571116, 252.331676)"><path style="stroke:none" d="M 7.359375 0.171875 C 6.109375 0.171875 4.984375 -0.0976562 3.984375 -0.640625 C 2.984375 -1.179688 2.195312 -1.929688 1.625 -2.890625 C 1.0625 -3.859375 0.78125 -4.945312 0.78125 -6.15625 C 0.78125 -7.363281 1.066406 -8.445312 1.640625 -9.40625 C 2.210938 -10.375 3 -11.128906 4 -11.671875 C 5 -12.210938 6.125 -12.484375 7.375 -12.484375 C 8.382812 -12.484375 9.304688 -12.304688 10.140625 -11.953125 C 10.972656 -11.609375 11.675781 -11.101562 12.25 -10.4375 L 10.765625 -9.046875 C 9.878906 -10.003906 8.785156 -10.484375 7.484375 -10.484375 C 6.628906 -10.484375 5.867188 -10.296875 5.203125 -9.921875 C 4.535156 -9.554688 4.015625 -9.046875 3.640625 -8.390625 C 3.265625 -7.734375 3.078125 -6.988281 3.078125 -6.15625 C 3.078125 -5.320312 3.265625 -4.578125 3.640625 -3.921875 C 4.015625 -3.265625 4.535156 -2.75 5.203125 -2.375 C 5.867188 -2.007812 6.628906 -1.828125 7.484375 -1.828125 C 8.785156 -1.828125 9.878906 -2.316406 10.765625 -3.296875 L 12.25 -1.875 C 11.675781 -1.207031 10.96875 -0.695312 10.125 -0.34375 C 9.289062 0 8.367188 0.171875 7.359375 0.171875 Z M 7.359375 0.171875 "/></g></g><g style="fill:#000000;fill-opacity:1;"><g transform="translate(244.972195, 252.331676)"><path style="stroke:none" d="M 12.59375 -12.3125 L 12.59375 0 L 10.3125 0 L 10.3125 -5.28125 L 3.9375 -5.28125 L 3.9375 0 L 1.65625 0 L 1.65625 -12.3125 L 3.9375 -12.3125 L 3.9375 -7.234375 L 10.3125 -7.234375 L 10.3125 -12.3125 Z M 12.59375 -12.3125 "/></g></g><g style="fill:#000000;fill-opacity:1;"><g transform="translate(263.83351, 252.331676)"><path style="stroke:none" d="M 7.40625 0.171875 C 6.15625 0.171875 5.023438 -0.0976562 4.015625 -0.640625 C 3.003906 -1.179688 2.210938 -1.9375 1.640625 -2.90625 C 1.066406 -3.875 0.78125 -4.957031 0.78125 -6.15625 C 0.78125 -7.351562 1.066406 -8.4375 1.640625 -9.40625 C 2.210938 -10.375 3.003906 -11.128906 4.015625 -11.671875 C 5.023438 -12.210938 6.15625 -12.484375 7.40625 -12.484375 C 8.664062 -12.484375 9.796875 -12.210938 10.796875 -11.671875 C 11.804688 -11.128906 12.597656 -10.375 13.171875 -9.40625 C 13.753906 -8.445312 14.046875 -7.363281 14.046875 -6.15625 C 14.046875 -4.945312 13.753906 -3.859375 13.171875 -2.890625 C 12.597656 -1.929688 11.804688 -1.179688 10.796875 -0.640625 C 9.796875 -0.0976562 8.664062 0.171875 7.40625 0.171875 Z M 7.40625 -1.828125 C 8.226562 -1.828125 8.96875 -2.007812 9.625 -2.375 C 10.28125 -2.75 10.796875 -3.265625 11.171875 -3.921875 C 11.546875 -4.585938 11.734375 -5.332031 11.734375 -6.15625 C 11.734375 -6.976562 11.546875 -7.71875 11.171875 -8.375 C 10.796875 -9.039062 10.28125 -9.554688 9.625 -9.921875 C 8.96875 -10.296875 8.226562 -10.484375 7.40625 -10.484375 C 6.582031 -10.484375 5.84375 -10.296875 5.1875 -9.921875 C 4.53125 -9.554688 4.015625 -9.039062 3.640625 -8.375 C 3.265625 -7.71875 3.078125 -6.976562 3.078125 -6.15625 C 3.078125 -5.332031 3.265625 -4.585938 3.640625 -3.921875 C 4.015625 -3.265625 4.53125 -2.75 5.1875 -2.375 C 5.84375 -2.007812 6.582031 -1.828125 7.40625 -1.828125 Z M 7.40625 -1.828125 "/></g></g><g style="fill:#000000;fill-opacity:1;"><g transform="translate(283.257797, 252.331676)"><path style="stroke:none" d="M 7.40625 0.171875 C 6.15625 0.171875 5.023438 -0.0976562 4.015625 -0.640625 C 3.003906 -1.179688 2.210938 -1.9375 1.640625 -2.90625 C 1.066406 -3.875 0.78125 -4.957031 0.78125 -6.15625 C 0.78125 -7.351562 1.066406 -8.4375 1.640625 -9.40625 C 2.210938 -10.375 3.003906 -11.128906 4.015625 -11.671875 C 5.023438 -12.210938 6.15625 -12.484375 7.40625 -12.484375 C 8.664062 -12.484375 9.796875 -12.210938 10.796875 -11.671875 C 11.804688 -11.128906 12.597656 -10.375 13.171875 -9.40625 C 13.753906 -8.445312 14.046875 -7.363281 14.046875 -6.15625 C 14.046875 -4.945312 13.753906 -3.859375 13.171875 -2.890625 C 12.597656 -1.929688 11.804688 -1.179688 10.796875 -0.640625 C 9.796875 -0.0976562 8.664062 0.171875 7.40625 0.171875 Z M 7.40625 -1.828125 C 8.226562 -1.828125 8.96875 -2.007812 9.625 -2.375 C 10.28125 -2.75 10.796875 -3.265625 11.171875 -3.921875 C 11.546875 -4.585938 11.734375 -5.332031 11.734375 -6.15625 C 11.734375 -6.976562 11.546875 -7.71875 11.171875 -8.375 C 10.796875 -9.039062 10.28125 -9.554688 9.625 -9.921875 C 8.96875 -10.296875 8.226562 -10.484375 7.40625 -10.484375 C 6.582031 -10.484375 5.84375 -10.296875 5.1875 -9.921875 C 4.53125 -9.554688 4.015625 -9.039062 3.640625 -8.375 C 3.265625 -7.71875 3.078125 -6.976562 3.078125 -6.15625 C 3.078125 -5.332031 3.265625 -4.585938 3.640625 -3.921875 C 4.015625 -3.265625 4.53125 -2.75 5.1875 -2.375 C 5.84375 -2.007812 6.582031 -1.828125 7.40625 -1.828125 Z M 7.40625 -1.828125 "/></g></g><g style="fill:#000000;fill-opacity:1;"><g transform="translate(302.682084, 252.331676)"><path style="stroke:none" d="M 1.65625 -12.3125 L 3.9375 -12.3125 L 3.9375 -1.9375 L 10.375 -1.9375 L 10.375 0 L 1.65625 0 Z M 1.65625 -12.3125 "/></g></g><g clip-rule="nonzero" clip-path="url(#90afc8835c)"><g clip-rule="nonzero" clip-path="url(#7abf71f7f7)"><path style=" stroke:none;fill-rule:nonzero;fill:url(#linear0);" d="M 0.0117188 209.15625 L 80.214844 209.15625 L 80.214844 142.691406 L 0.0117188 142.691406 Z M 0.0117188 209.15625 "/></g></g><g clip-rule="nonzero" clip-path="url(#902880a9ab)"><path style=" stroke:none;fill-rule:nonzero;fill:#ffffff;fill-opacity:1;" d="M 7.6875 117.320312 L 84.191406 117.320312 L 84.191406 222.910156 L 2.792969 222.910156 L 2.792969 190.394531 L 12.585938 194.027344 L 12.585938 213.117188 L 74.398438 213.117188 L 74.398438 127.113281 L 12.585938 127.113281 L 12.585938 160.277344 L 2.792969 164.753906 L 2.792969 117.320312 L 7.6875 117.320312 "/></g><g clip-rule="nonzero" clip-path="url(#4b9bdefbbd)"><path style=" stroke:none;fill-rule:nonzero;fill:#ffffff;fill-opacity:1;" d="M 59.59375 157.246094 L 53.457031 157.246094 C 53.183594 157.246094 52.914062 157.382812 52.84375 157.65625 L 44.59375 177.632812 L 36.34375 157.65625 C 36.277344 157.382812 36.003906 157.246094 35.730469 157.246094 L 29.59375 157.246094 C 29.183594 157.246094 28.914062 157.519531 28.914062 157.925781 L 28.914062 186.5625 C 28.914062 186.972656 29.183594 187.246094 29.59375 187.246094 L 34.367188 187.246094 C 34.777344 187.246094 35.050781 186.972656 35.050781 186.5625 L 35.050781 168.15625 L 35.527344 168.15625 L 42.414062 184.792969 C 42.550781 185.0625 42.753906 185.199219 43.027344 185.199219 L 46.230469 185.199219 C 46.503906 185.199219 46.777344 185.0625 46.84375 184.792969 L 53.664062 168.15625 L 54.140625 168.15625 L 54.140625 186.5625 C 54.140625 186.972656 54.414062 187.246094 54.820312 187.246094 L 59.59375 187.246094 C 60.003906 187.246094 60.277344 186.972656 60.277344 186.5625 L 60.277344 157.925781 C 60.277344 157.519531 60.003906 157.246094 59.59375 157.246094 Z M 59.59375 157.246094 "/></g></g></svg>